<mxfile host="www.draw.io" modified="2019-11-03T15:17:53.153Z" agent="Mozilla/5.0 (Macintosh; Intel Mac OS X 10.14; rv:69.0) Gecko/20100101 Firefox/69.0" etag="_z_L6l-surbCsgiHZblm" version="12.1.9" type="github" pages="1">
  <diagram id="y-J3OKZGAx_eKoh8PJRH" name="Page-1">
    <mxGraphModel dx="946" dy="1751" grid="1" gridSize="10" guides="1" tooltips="1" connect="1" arrows="1" fold="1" page="1" pageScale="1" pageWidth="850" pageHeight="1100" math="0" shadow="0">
      <root>
        <mxCell id="0"/>
        <mxCell id="1" parent="0"/>
        <mxCell id="5_qDgiSknT7TXWrDsM25-2" value="oc" style="edgeStyle=orthogonalEdgeStyle;rounded=0;orthogonalLoop=1;jettySize=auto;html=1;" parent="1" source="5_qDgiSknT7TXWrDsM25-1" edge="1">
          <mxGeometry relative="1" as="geometry">
            <mxPoint x="55" y="290" as="targetPoint"/>
          </mxGeometry>
        </mxCell>
        <mxCell id="5_qDgiSknT7TXWrDsM25-4" value="OD" style="edgeStyle=orthogonalEdgeStyle;rounded=0;orthogonalLoop=1;jettySize=auto;html=1;" parent="1" source="5_qDgiSknT7TXWrDsM25-1" edge="1">
          <mxGeometry relative="1" as="geometry">
            <mxPoint x="140" y="185" as="targetPoint"/>
          </mxGeometry>
        </mxCell>
        <mxCell id="5_qDgiSknT7TXWrDsM25-1" value="Program Memory" style="whiteSpace=wrap;html=1;aspect=fixed;" parent="1" vertex="1">
          <mxGeometry x="10" y="140" width="90" height="90" as="geometry"/>
        </mxCell>
        <mxCell id="5_qDgiSknT7TXWrDsM25-99" style="edgeStyle=elbowEdgeStyle;rounded=0;orthogonalLoop=1;jettySize=auto;html=1;" parent="1" source="5_qDgiSknT7TXWrDsM25-3" target="5_qDgiSknT7TXWrDsM25-96" edge="1">
          <mxGeometry relative="1" as="geometry"/>
        </mxCell>
        <mxCell id="5_qDgiSknT7TXWrDsM25-3" value="IR" style="whiteSpace=wrap;html=1;aspect=fixed;" parent="1" vertex="1">
          <mxGeometry x="30" y="290" width="50" height="50" as="geometry"/>
        </mxCell>
        <mxCell id="5_qDgiSknT7TXWrDsM25-7" style="edgeStyle=orthogonalEdgeStyle;rounded=0;orthogonalLoop=1;jettySize=auto;html=1;" parent="1" source="5_qDgiSknT7TXWrDsM25-5" edge="1">
          <mxGeometry relative="1" as="geometry">
            <mxPoint x="200" y="185" as="targetPoint"/>
          </mxGeometry>
        </mxCell>
        <mxCell id="5_qDgiSknT7TXWrDsM25-5" value="OR1" style="whiteSpace=wrap;html=1;aspect=fixed;" parent="1" vertex="1">
          <mxGeometry x="140" y="164.5" width="41" height="41" as="geometry"/>
        </mxCell>
        <mxCell id="5_qDgiSknT7TXWrDsM25-41" style="edgeStyle=orthogonalEdgeStyle;rounded=0;orthogonalLoop=1;jettySize=auto;html=1;entryX=0.5;entryY=0;entryDx=0;entryDy=0;exitX=0.5;exitY=0;exitDx=0;exitDy=0;" parent="1" source="5_qDgiSknT7TXWrDsM25-8" target="5_qDgiSknT7TXWrDsM25-22" edge="1">
          <mxGeometry relative="1" as="geometry">
            <mxPoint x="120" y="-10" as="targetPoint"/>
            <mxPoint x="210" y="140" as="sourcePoint"/>
            <Array as="points">
              <mxPoint x="220" y="-10"/>
              <mxPoint x="120" y="-10"/>
            </Array>
          </mxGeometry>
        </mxCell>
        <mxCell id="5_qDgiSknT7TXWrDsM25-47" value="Operand" style="edgeStyle=orthogonalEdgeStyle;rounded=0;orthogonalLoop=1;jettySize=auto;html=1;entryX=0;entryY=0.75;entryDx=0;entryDy=0;" parent="1" source="5_qDgiSknT7TXWrDsM25-8" target="5_qDgiSknT7TXWrDsM25-37" edge="1">
          <mxGeometry relative="1" as="geometry">
            <mxPoint x="320" y="185.5" as="targetPoint"/>
            <Array as="points">
              <mxPoint x="320" y="190"/>
              <mxPoint x="320" y="273"/>
            </Array>
          </mxGeometry>
        </mxCell>
        <mxCell id="5_qDgiSknT7TXWrDsM25-8" value="OR2" style="whiteSpace=wrap;html=1;aspect=fixed;" parent="1" vertex="1">
          <mxGeometry x="200" y="165.5" width="40" height="40" as="geometry"/>
        </mxCell>
        <mxCell id="5_qDgiSknT7TXWrDsM25-13" style="edgeStyle=orthogonalEdgeStyle;rounded=0;orthogonalLoop=1;jettySize=auto;html=1;entryX=0.5;entryY=0;entryDx=0;entryDy=0;" parent="1" source="5_qDgiSknT7TXWrDsM25-9" target="5_qDgiSknT7TXWrDsM25-1" edge="1">
          <mxGeometry relative="1" as="geometry">
            <Array as="points">
              <mxPoint x="55" y="80"/>
              <mxPoint x="55" y="80"/>
            </Array>
          </mxGeometry>
        </mxCell>
        <mxCell id="5_qDgiSknT7TXWrDsM25-26" style="edgeStyle=orthogonalEdgeStyle;rounded=0;orthogonalLoop=1;jettySize=auto;html=1;" parent="1" source="5_qDgiSknT7TXWrDsM25-9" edge="1">
          <mxGeometry relative="1" as="geometry">
            <mxPoint x="120" y="-80" as="targetPoint"/>
            <Array as="points">
              <mxPoint x="50" y="-80"/>
            </Array>
          </mxGeometry>
        </mxCell>
        <mxCell id="5_qDgiSknT7TXWrDsM25-9" value="PC" style="whiteSpace=wrap;html=1;aspect=fixed;" parent="1" vertex="1">
          <mxGeometry x="40" y="25" width="30" height="30" as="geometry"/>
        </mxCell>
        <mxCell id="5_qDgiSknT7TXWrDsM25-28" style="edgeStyle=orthogonalEdgeStyle;rounded=0;orthogonalLoop=1;jettySize=auto;html=1;entryX=1;entryY=0.5;entryDx=0;entryDy=0;" parent="1" source="5_qDgiSknT7TXWrDsM25-14" target="5_qDgiSknT7TXWrDsM25-22" edge="1">
          <mxGeometry relative="1" as="geometry">
            <mxPoint x="170.5" y="40" as="targetPoint"/>
            <Array as="points">
              <mxPoint x="170" y="40"/>
            </Array>
          </mxGeometry>
        </mxCell>
        <mxCell id="5_qDgiSknT7TXWrDsM25-14" value="+1" style="whiteSpace=wrap;html=1;aspect=fixed;" parent="1" vertex="1">
          <mxGeometry x="161" y="90" width="20" height="20" as="geometry"/>
        </mxCell>
        <mxCell id="5_qDgiSknT7TXWrDsM25-42" style="edgeStyle=orthogonalEdgeStyle;rounded=0;orthogonalLoop=1;jettySize=auto;html=1;entryX=1;entryY=0.5;entryDx=0;entryDy=0;" parent="1" source="5_qDgiSknT7TXWrDsM25-22" target="5_qDgiSknT7TXWrDsM25-9" edge="1">
          <mxGeometry relative="1" as="geometry"/>
        </mxCell>
        <mxCell id="5_qDgiSknT7TXWrDsM25-22" value="MUX" style="whiteSpace=wrap;html=1;aspect=fixed;" parent="1" vertex="1">
          <mxGeometry x="101" y="20" width="40" height="40" as="geometry"/>
        </mxCell>
        <mxCell id="5_qDgiSknT7TXWrDsM25-31" value="" style="endArrow=classic;html=1;" parent="1" edge="1">
          <mxGeometry width="50" height="50" relative="1" as="geometry">
            <mxPoint x="55" y="100" as="sourcePoint"/>
            <mxPoint x="155" y="100" as="targetPoint"/>
          </mxGeometry>
        </mxCell>
        <mxCell id="5_qDgiSknT7TXWrDsM25-60" value="&lt;div&gt;ALU&lt;/div&gt;" style="edgeStyle=elbowEdgeStyle;rounded=0;orthogonalLoop=1;jettySize=auto;html=1;" parent="1" source="5_qDgiSknT7TXWrDsM25-32" edge="1">
          <mxGeometry relative="1" as="geometry">
            <mxPoint x="350" y="-40" as="targetPoint"/>
            <Array as="points">
              <mxPoint x="660" y="90"/>
              <mxPoint x="350" y="-50"/>
            </Array>
          </mxGeometry>
        </mxCell>
        <mxCell id="5_qDgiSknT7TXWrDsM25-32" value="ALU" style="verticalLabelPosition=bottom;verticalAlign=top;html=1;strokeWidth=2;shape=trapezoid;perimeter=trapezoidPerimeter;whiteSpace=wrap;size=0.23;arcSize=10;flipV=1;direction=south;" parent="1" vertex="1">
          <mxGeometry x="560" y="166" width="30" height="100" as="geometry"/>
        </mxCell>
        <mxCell id="5_qDgiSknT7TXWrDsM25-56" value="&lt;div&gt;A&lt;br&gt;&lt;/div&gt;" style="edgeStyle=elbowEdgeStyle;rounded=0;orthogonalLoop=1;jettySize=auto;html=1;entryX=0.815;entryY=1.086;entryDx=0;entryDy=0;entryPerimeter=0;" parent="1" source="5_qDgiSknT7TXWrDsM25-34" target="5_qDgiSknT7TXWrDsM25-32" edge="1">
          <mxGeometry relative="1" as="geometry">
            <mxPoint x="530" y="65" as="targetPoint"/>
            <Array as="points">
              <mxPoint x="530" y="60"/>
            </Array>
          </mxGeometry>
        </mxCell>
        <mxCell id="5_qDgiSknT7TXWrDsM25-61" style="edgeStyle=elbowEdgeStyle;rounded=0;orthogonalLoop=1;jettySize=auto;html=1;entryX=1;entryY=0.75;entryDx=0;entryDy=0;" parent="1" target="5_qDgiSknT7TXWrDsM25-91" edge="1">
          <mxGeometry relative="1" as="geometry">
            <mxPoint x="360" y="-40" as="sourcePoint"/>
          </mxGeometry>
        </mxCell>
        <mxCell id="5_qDgiSknT7TXWrDsM25-34" value="Register Array" style="rounded=0;whiteSpace=wrap;html=1;" parent="1" vertex="1">
          <mxGeometry x="310" width="80" height="130" as="geometry"/>
        </mxCell>
        <mxCell id="5_qDgiSknT7TXWrDsM25-58" style="edgeStyle=elbowEdgeStyle;rounded=0;orthogonalLoop=1;jettySize=auto;html=1;entryX=0.75;entryY=1;entryDx=0;entryDy=0;" parent="1" source="5_qDgiSknT7TXWrDsM25-37" target="5_qDgiSknT7TXWrDsM25-32" edge="1">
          <mxGeometry relative="1" as="geometry"/>
        </mxCell>
        <mxCell id="5_qDgiSknT7TXWrDsM25-37" value="mux" style="rounded=0;whiteSpace=wrap;html=1;" parent="1" vertex="1">
          <mxGeometry x="480" y="220" width="35" height="70" as="geometry"/>
        </mxCell>
        <mxCell id="5_qDgiSknT7TXWrDsM25-83" style="edgeStyle=elbowEdgeStyle;rounded=0;orthogonalLoop=1;jettySize=auto;html=1;entryX=0;entryY=0.75;entryDx=0;entryDy=0;" parent="1" source="5_qDgiSknT7TXWrDsM25-39" target="5_qDgiSknT7TXWrDsM25-80" edge="1">
          <mxGeometry relative="1" as="geometry">
            <Array as="points">
              <mxPoint x="190" y="-110"/>
            </Array>
          </mxGeometry>
        </mxCell>
        <mxCell id="5_qDgiSknT7TXWrDsM25-39" value="NPC" style="whiteSpace=wrap;html=1;aspect=fixed;" parent="1" vertex="1">
          <mxGeometry x="120" y="-100" width="40" height="40" as="geometry"/>
        </mxCell>
        <mxCell id="5_qDgiSknT7TXWrDsM25-69" style="edgeStyle=elbowEdgeStyle;rounded=0;orthogonalLoop=1;jettySize=auto;html=1;entryX=0;entryY=0.75;entryDx=0;entryDy=0;exitX=0.5;exitY=0;exitDx=0;exitDy=0;" parent="1" source="5_qDgiSknT7TXWrDsM25-77" target="5_qDgiSknT7TXWrDsM25-62" edge="1">
          <mxGeometry relative="1" as="geometry">
            <mxPoint x="530" y="-210" as="sourcePoint"/>
          </mxGeometry>
        </mxCell>
        <mxCell id="5_qDgiSknT7TXWrDsM25-43" value="&lt;div&gt;SP&amp;nbsp; + 1&lt;/div&gt;&lt;div&gt;---------------&lt;br&gt;&lt;/div&gt;&lt;div&gt;SP&lt;/div&gt;&lt;div&gt;--------------&lt;/div&gt;&lt;div&gt;SP - 1&lt;br&gt;&lt;/div&gt;" style="whiteSpace=wrap;html=1;aspect=fixed;" parent="1" vertex="1">
          <mxGeometry x="425" y="-250" width="80" height="80" as="geometry"/>
        </mxCell>
        <mxCell id="5_qDgiSknT7TXWrDsM25-50" value="B" style="endArrow=none;html=1;" parent="1" edge="1">
          <mxGeometry width="50" height="50" relative="1" as="geometry">
            <mxPoint x="410" y="250" as="sourcePoint"/>
            <mxPoint x="410" y="110" as="targetPoint"/>
          </mxGeometry>
        </mxCell>
        <mxCell id="5_qDgiSknT7TXWrDsM25-57" value="" style="endArrow=none;html=1;" parent="1" edge="1">
          <mxGeometry width="50" height="50" relative="1" as="geometry">
            <mxPoint x="390" y="110" as="sourcePoint"/>
            <mxPoint x="410" y="110" as="targetPoint"/>
          </mxGeometry>
        </mxCell>
        <mxCell id="5_qDgiSknT7TXWrDsM25-88" style="edgeStyle=elbowEdgeStyle;rounded=0;orthogonalLoop=1;jettySize=auto;html=1;" parent="1" source="5_qDgiSknT7TXWrDsM25-62" edge="1">
          <mxGeometry relative="1" as="geometry">
            <mxPoint x="670" y="-190" as="targetPoint"/>
          </mxGeometry>
        </mxCell>
        <mxCell id="5_qDgiSknT7TXWrDsM25-62" value="mux" style="whiteSpace=wrap;html=1;aspect=fixed;" parent="1" vertex="1">
          <mxGeometry x="554" y="-265" width="30" height="30" as="geometry"/>
        </mxCell>
        <mxCell id="5_qDgiSknT7TXWrDsM25-70" value="" style="endArrow=classic;html=1;entryX=0.5;entryY=0;entryDx=0;entryDy=0;" parent="1" target="5_qDgiSknT7TXWrDsM25-62" edge="1">
          <mxGeometry width="50" height="50" relative="1" as="geometry">
            <mxPoint x="395" y="60" as="sourcePoint"/>
            <mxPoint x="575" y="-280" as="targetPoint"/>
            <Array as="points">
              <mxPoint x="395" y="-280"/>
              <mxPoint x="545" y="-280"/>
              <mxPoint x="570" y="-280"/>
            </Array>
          </mxGeometry>
        </mxCell>
        <mxCell id="5_qDgiSknT7TXWrDsM25-72" value="&lt;div&gt;Data Memory&lt;/div&gt;&lt;div&gt;&lt;br&gt;&lt;/div&gt;" style="shape=datastore;whiteSpace=wrap;html=1;" parent="1" vertex="1">
          <mxGeometry x="740" y="-310" width="61" height="70" as="geometry"/>
        </mxCell>
        <mxCell id="5_qDgiSknT7TXWrDsM25-77" value="&lt;div&gt;M&lt;/div&gt;&lt;div&gt;U&lt;/div&gt;&lt;div&gt;X&lt;br&gt;&lt;/div&gt;" style="rounded=0;whiteSpace=wrap;html=1;direction=south;" parent="1" vertex="1">
          <mxGeometry x="505" y="-245.5" width="20" height="71" as="geometry"/>
        </mxCell>
        <mxCell id="5_qDgiSknT7TXWrDsM25-86" value="Data" style="edgeStyle=elbowEdgeStyle;rounded=0;orthogonalLoop=1;jettySize=auto;html=1;entryX=0.016;entryY=0.171;entryDx=0;entryDy=0;entryPerimeter=0;" parent="1" source="5_qDgiSknT7TXWrDsM25-80" target="5_qDgiSknT7TXWrDsM25-72" edge="1">
          <mxGeometry relative="1" as="geometry"/>
        </mxCell>
        <mxCell id="5_qDgiSknT7TXWrDsM25-80" value="mux" style="whiteSpace=wrap;html=1;aspect=fixed;" parent="1" vertex="1">
          <mxGeometry x="400" y="-350" width="40" height="40" as="geometry"/>
        </mxCell>
        <mxCell id="5_qDgiSknT7TXWrDsM25-84" value="" style="endArrow=classic;html=1;entryX=0.5;entryY=1;entryDx=0;entryDy=0;" parent="1" target="5_qDgiSknT7TXWrDsM25-80" edge="1">
          <mxGeometry width="50" height="50" relative="1" as="geometry">
            <mxPoint x="410" y="120" as="sourcePoint"/>
            <mxPoint x="420" y="-150" as="targetPoint"/>
            <Array as="points">
              <mxPoint x="420" y="120"/>
              <mxPoint x="420" y="-80"/>
            </Array>
          </mxGeometry>
        </mxCell>
        <mxCell id="5_qDgiSknT7TXWrDsM25-85" value="" style="endArrow=classic;html=1;entryX=0;entryY=0.414;entryDx=0;entryDy=0;entryPerimeter=0;" parent="1" target="5_qDgiSknT7TXWrDsM25-37" edge="1">
          <mxGeometry width="50" height="50" relative="1" as="geometry">
            <mxPoint x="410" y="250" as="sourcePoint"/>
            <mxPoint x="460" y="220" as="targetPoint"/>
          </mxGeometry>
        </mxCell>
        <mxCell id="5_qDgiSknT7TXWrDsM25-90" value="Address" style="edgeStyle=elbowEdgeStyle;rounded=0;orthogonalLoop=1;jettySize=auto;html=1;entryX=0;entryY=0.7;entryDx=0;entryDy=0;" parent="1" target="5_qDgiSknT7TXWrDsM25-72" edge="1">
          <mxGeometry relative="1" as="geometry">
            <mxPoint x="660" y="-190" as="sourcePoint"/>
          </mxGeometry>
        </mxCell>
        <mxCell id="5_qDgiSknT7TXWrDsM25-95" style="edgeStyle=elbowEdgeStyle;rounded=0;orthogonalLoop=1;jettySize=auto;html=1;" parent="1" source="5_qDgiSknT7TXWrDsM25-91" target="5_qDgiSknT7TXWrDsM25-34" edge="1">
          <mxGeometry relative="1" as="geometry">
            <mxPoint x="290" y="80" as="targetPoint"/>
            <Array as="points">
              <mxPoint x="290" y="80"/>
            </Array>
          </mxGeometry>
        </mxCell>
        <mxCell id="5_qDgiSknT7TXWrDsM25-91" value="MUX1" style="whiteSpace=wrap;html=1;aspect=fixed;" parent="1" vertex="1">
          <mxGeometry x="270" y="-100" width="40" height="40" as="geometry"/>
        </mxCell>
        <mxCell id="5_qDgiSknT7TXWrDsM25-92" value="R0" style="endArrow=classic;html=1;entryX=1;entryY=0.5;entryDx=0;entryDy=0;" parent="1" edge="1">
          <mxGeometry width="50" height="50" relative="1" as="geometry">
            <mxPoint x="350" y="-81" as="sourcePoint"/>
            <mxPoint x="314" y="-81" as="targetPoint"/>
          </mxGeometry>
        </mxCell>
        <mxCell id="5_qDgiSknT7TXWrDsM25-93" value="RN" style="endArrow=classic;html=1;entryX=0.5;entryY=0;entryDx=0;entryDy=0;" parent="1" target="5_qDgiSknT7TXWrDsM25-91" edge="1">
          <mxGeometry width="50" height="50" relative="1" as="geometry">
            <mxPoint x="420" y="-140" as="sourcePoint"/>
            <mxPoint x="400" y="-140" as="targetPoint"/>
            <Array as="points">
              <mxPoint x="290" y="-140"/>
            </Array>
          </mxGeometry>
        </mxCell>
        <mxCell id="5_qDgiSknT7TXWrDsM25-94" value="" style="endArrow=classic;html=1;" parent="1" target="5_qDgiSknT7TXWrDsM25-91" edge="1">
          <mxGeometry width="50" height="50" relative="1" as="geometry">
            <mxPoint x="220" y="100" as="sourcePoint"/>
            <mxPoint x="246" y="-80" as="targetPoint"/>
            <Array as="points">
              <mxPoint x="246" y="100"/>
              <mxPoint x="246" y="30"/>
              <mxPoint x="246" y="-20"/>
              <mxPoint x="246" y="-80"/>
            </Array>
          </mxGeometry>
        </mxCell>
        <mxCell id="5_qDgiSknT7TXWrDsM25-96" value="&lt;div&gt;Control Generator&lt;/div&gt;&lt;div&gt;Stage 2 &lt;br&gt;&lt;/div&gt;" style="whiteSpace=wrap;html=1;aspect=fixed;" parent="1" vertex="1">
          <mxGeometry x="131" y="360" width="80" height="80" as="geometry"/>
        </mxCell>
        <mxCell id="5_qDgiSknT7TXWrDsM25-103" value="INPUT" style="edgeStyle=elbowEdgeStyle;rounded=0;orthogonalLoop=1;jettySize=auto;html=1;entryX=1;entryY=0.5;entryDx=0;entryDy=0;" parent="1" source="5_qDgiSknT7TXWrDsM25-97" target="5_qDgiSknT7TXWrDsM25-102" edge="1">
          <mxGeometry relative="1" as="geometry"/>
        </mxCell>
        <mxCell id="5_qDgiSknT7TXWrDsM25-97" value="Input / Output Buffer" style="rounded=1;whiteSpace=wrap;html=1;" parent="1" vertex="1">
          <mxGeometry x="741" y="-80" width="120" height="60" as="geometry"/>
        </mxCell>
        <mxCell id="5_qDgiSknT7TXWrDsM25-98" value="" style="shape=doubleArrow;direction=west;whiteSpace=wrap;html=1;" parent="1" vertex="1">
          <mxGeometry x="870" y="-80" width="60" height="60" as="geometry"/>
        </mxCell>
        <mxCell id="5_qDgiSknT7TXWrDsM25-100" value="" style="shape=singleArrow;whiteSpace=wrap;html=1;" parent="1" vertex="1">
          <mxGeometry x="211" y="380" width="50" height="40" as="geometry"/>
        </mxCell>
        <mxCell id="5_qDgiSknT7TXWrDsM25-101" value="&lt;div&gt;Control Generator &lt;br&gt;&lt;/div&gt;&lt;div&gt;Stage 3&lt;/div&gt;&lt;div&gt;&lt;br&gt;&lt;/div&gt;" style="whiteSpace=wrap;html=1;aspect=fixed;" parent="1" vertex="1">
          <mxGeometry x="261" y="360" width="80" height="80" as="geometry"/>
        </mxCell>
        <mxCell id="5_qDgiSknT7TXWrDsM25-102" value="mux" style="whiteSpace=wrap;html=1;aspect=fixed;" parent="1" vertex="1">
          <mxGeometry x="350" y="-100" width="30" height="30" as="geometry"/>
        </mxCell>
        <mxCell id="5_qDgiSknT7TXWrDsM25-104" value="" style="endArrow=classic;html=1;entryX=0.25;entryY=0;entryDx=0;entryDy=0;" parent="1" edge="1">
          <mxGeometry width="50" height="50" relative="1" as="geometry">
            <mxPoint x="395" y="-120" as="sourcePoint"/>
            <mxPoint x="352.5" y="-100" as="targetPoint"/>
            <Array as="points">
              <mxPoint x="353" y="-120"/>
            </Array>
          </mxGeometry>
        </mxCell>
        <mxCell id="5_qDgiSknT7TXWrDsM25-105" value="&lt;div&gt;Module&lt;/div&gt;" style="rounded=0;whiteSpace=wrap;html=1;" parent="1" vertex="1">
          <mxGeometry x="939" y="-80" width="80" height="60" as="geometry"/>
        </mxCell>
        <mxCell id="5_qDgiSknT7TXWrDsM25-106" value="&lt;div&gt;OUTPUT&lt;/div&gt;&lt;div&gt;&lt;br&gt;&lt;/div&gt;" style="endArrow=classic;html=1;entryX=0.35;entryY=1.05;entryDx=0;entryDy=0;entryPerimeter=0;" parent="1" target="5_qDgiSknT7TXWrDsM25-97" edge="1">
          <mxGeometry width="50" height="50" relative="1" as="geometry">
            <mxPoint x="530" y="120" as="sourcePoint"/>
            <mxPoint x="790" y="120" as="targetPoint"/>
            <Array as="points">
              <mxPoint x="783" y="120"/>
            </Array>
          </mxGeometry>
        </mxCell>
      </root>
    </mxGraphModel>
  </diagram>
</mxfile>
